<svg width="430" height="611" viewBox="0 0 430 611" fill="none" xmlns="http://www.w3.org/2000/svg">
<g filter="url(#filter0_dd_1111_3546)">
<path d="M237.134 560.396L202.992 548.275L138 584.018L197.465 545.321L181.399 541.354L166.325 543.14L138 584.018L232.77 566.148L228.997 564.754L237.134 560.396Z" fill="white"/>
</g>
<path d="M198.297 550.851L197.503 545.496L138.397 583.776L198.297 550.851Z" fill="#D9D9D9"/>
<path d="M204.049 574.454L203.454 571.677L138.198 583.975L204.049 574.454Z" fill="#C5C5C5"/>
<path d="M132.5 126.5C236.5 64.0002 404 73.0001 404 178.5C404 284 330.5 280.5 302 259.5C273.5 238.5 302.5 193.5 340 209C377.5 224.5 321 273 375 315C429 357 384.5 436.5 349.964 453.873C315.428 471.245 276.261 431.415 250.39 468.134C224.518 504.854 266 528.5 205.5 543.5" stroke="black" stroke-width="5" stroke-dasharray="15 15"/>
<defs>
<filter id="filter0_dd_1111_3546" x="120" y="527.354" width="139.134" height="82.6636" filterUnits="userSpaceOnUse" color-interpolation-filters="sRGB">
<feFlood flood-opacity="0" result="BackgroundImageFix"/>
<feColorMatrix in="SourceAlpha" type="matrix" values="0 0 0 0 0 0 0 0 0 0 0 0 0 0 0 0 0 0 127 0" result="hardAlpha"/>
<feOffset dx="-1" dy="-1"/>
<feGaussianBlur stdDeviation="3.5"/>
<feComposite in2="hardAlpha" operator="out"/>
<feColorMatrix type="matrix" values="0 0 0 0 0 0 0 0 0 0 0 0 0 0 0 0 0 0 0.05 0"/>
<feBlend mode="normal" in2="BackgroundImageFix" result="effect1_dropShadow_1111_3546"/>
<feColorMatrix in="SourceAlpha" type="matrix" values="0 0 0 0 0 0 0 0 0 0 0 0 0 0 0 0 0 0 127 0" result="hardAlpha"/>
<feOffset dx="2" dy="6"/>
<feGaussianBlur stdDeviation="10"/>
<feComposite in2="hardAlpha" operator="out"/>
<feColorMatrix type="matrix" values="0 0 0 0 0 0 0 0 0 0 0 0 0 0 0 0 0 0 0.3 0"/>
<feBlend mode="normal" in2="effect1_dropShadow_1111_3546" result="effect2_dropShadow_1111_3546"/>
<feBlend mode="normal" in="SourceGraphic" in2="effect2_dropShadow_1111_3546" result="shape"/>
</filter>
</defs>
</svg>
