<svg width="1313" height="1035" viewBox="0 0 1313 1035" fill="none" xmlns="http://www.w3.org/2000/svg">
<path d="M5 204.5C325 -10.9998 804.439 56.4059 881.5 193C958.561 329.594 872 416.5 768 424.5C664.001 432.5 586.5 358 578.5 259C570.5 160 630.151 28.6281 914.54 8.90182C1198.93 -10.8244 1246.08 205.725 1139.3 269.741C1032.52 333.757 974.46 372.469 1001.3 482.476C1028.14 592.483 1222.71 516.036 1286.53 665.243C1350.34 814.449 1228.23 867.336 1228.23 867.336" stroke="black" stroke-width="15" stroke-dasharray="47 47"/>
<g filter="url(#filter0_dd_1119_3548)">
<path d="M1285.9 916.061L1199.84 885.506L1036 975.61L1185.9 878.06L1145.4 868.06L1107.4 872.561L1036 975.61L1274.9 930.561L1265.39 927.048L1285.9 916.061Z" fill="white"/>
</g>
<path d="M1188 892L1186 878.5L1037 975L1188 892Z" fill="#D9D9D9"/>
<path d="M1202.5 951.5L1201 944.5L1036.5 975.5L1202.5 951.5Z" fill="#C5C5C5"/>
<defs>
<filter id="filter0_dd_1119_3548" x="1018" y="854.06" width="289.903" height="147.55" filterUnits="userSpaceOnUse" color-interpolation-filters="sRGB">
<feFlood flood-opacity="0" result="BackgroundImageFix"/>
<feColorMatrix in="SourceAlpha" type="matrix" values="0 0 0 0 0 0 0 0 0 0 0 0 0 0 0 0 0 0 127 0" result="hardAlpha"/>
<feOffset dx="-1" dy="-1"/>
<feGaussianBlur stdDeviation="3.5"/>
<feComposite in2="hardAlpha" operator="out"/>
<feColorMatrix type="matrix" values="0 0 0 0 0 0 0 0 0 0 0 0 0 0 0 0 0 0 0.05 0"/>
<feBlend mode="normal" in2="BackgroundImageFix" result="effect1_dropShadow_1119_3548"/>
<feColorMatrix in="SourceAlpha" type="matrix" values="0 0 0 0 0 0 0 0 0 0 0 0 0 0 0 0 0 0 127 0" result="hardAlpha"/>
<feOffset dx="2" dy="6"/>
<feGaussianBlur stdDeviation="10"/>
<feComposite in2="hardAlpha" operator="out"/>
<feColorMatrix type="matrix" values="0 0 0 0 0 0 0 0 0 0 0 0 0 0 0 0 0 0 0.3 0"/>
<feBlend mode="normal" in2="effect1_dropShadow_1119_3548" result="effect2_dropShadow_1119_3548"/>
<feBlend mode="normal" in="SourceGraphic" in2="effect2_dropShadow_1119_3548" result="shape"/>
</filter>
</defs>
</svg>
