<svg width="48" height="48" viewBox="0 0 48 48" fill="none" xmlns="http://www.w3.org/2000/svg">
<path d="M19.0242 14.3298C19.7752 14.5842 20.4896 14.9359 21.1492 15.3758C22.0808 15.1377 23.0387 15.0181 24.0002 15.0198C24.9932 15.0198 25.9512 15.1438 26.8492 15.3748C27.5086 14.9353 28.2227 14.584 28.9732 14.3298C29.6702 14.0928 30.6632 13.7088 31.2532 14.3618C31.6532 14.8058 31.7532 15.5498 31.8242 16.1178C31.9042 16.7518 31.9232 17.5778 31.7132 18.3978C32.5162 19.4348 33.0002 20.6718 33.0002 22.0198C33.0002 24.0618 31.8942 25.8348 30.2572 27.0628C29.4694 27.6464 28.5956 28.1038 27.6672 28.4188C27.8812 28.9088 28.0002 29.4508 28.0002 30.0198V33.0198C28.0002 33.2851 27.8949 33.5394 27.7073 33.7269C27.5198 33.9145 27.2654 34.0198 27.0002 34.0198H21.0002C20.735 34.0198 20.4807 33.9145 20.2931 33.7269C20.1056 33.5394 20.0002 33.2851 20.0002 33.0198V32.0288C19.0452 32.1458 18.2442 32.0418 17.5632 31.7528C16.8512 31.4508 16.3552 30.9828 15.9822 30.5348C15.6282 30.1108 15.2422 29.1548 14.6842 28.9688C14.5596 28.9273 14.4444 28.8617 14.3451 28.7757C14.2459 28.6896 14.1645 28.5849 14.1057 28.4674C13.987 28.2302 13.9674 27.9555 14.0512 27.7038C14.135 27.4521 14.3154 27.2441 14.5526 27.1253C14.7899 27.0066 15.0645 26.987 15.3162 27.0708C15.9822 27.2928 16.4162 27.7728 16.7132 28.1588C17.1932 28.7788 17.5832 29.5888 18.3432 29.9118C18.6562 30.0448 19.1152 30.1318 19.8332 30.0338L20.0002 29.9998C20.0021 29.4556 20.1155 28.9176 20.3332 28.4188C19.4048 28.1039 18.531 27.6464 17.7432 27.0628C16.1062 25.8348 15.0002 24.0628 15.0002 22.0198C15.0002 20.6738 15.4832 19.4378 16.2842 18.4018C16.0742 17.5818 16.0922 16.7538 16.1722 16.1188L16.1772 16.0808C16.2502 15.4988 16.3352 14.8138 16.7432 14.3618C17.3332 13.7088 18.3272 14.0938 19.0232 14.3308L19.0242 14.3298Z" fill="white"/>
<path d="M24.0015 0C10.7681 0 0 10.7651 0 24C0 37.2349 10.7681 48 24.0015 48C37.2349 48 48.003 37.2349 48.003 24C48.003 10.7651 37.2349 0 24.0015 0ZM24.0015 46.4014C11.6497 46.4014 1.6016 36.3518 1.6016 24C1.6016 11.6482 11.6497 1.5986 24.0015 1.5986C36.3532 1.5986 46.4014 11.6482 46.4014 24C46.4014 36.3518 36.3532 46.4014 24.0015 46.4014Z" fill="#FBFBFB"/>
</svg>
