<svg width="48" height="48" viewBox="0 0 48 48" fill="none" xmlns="http://www.w3.org/2000/svg">
<path d="M29.2611 17.9409C28.2463 17.9409 27.4949 18.1969 26.9066 18.5202C26.8123 18.1849 26.5025 17.9394 26.1373 18.0128H21.6708C21.2292 17.9394 20.8715 18.2972 21.0077 18.7612V35.2262C20.8715 35.6453 21.2292 36.0045 21.6708 35.9746H26.1373C26.5788 36.0045 26.9366 35.6453 26.9366 35.2037L26.9351 25.2529C26.9336 25.2484 26.9171 24.7724 27.218 24.4446C27.459 24.1842 27.8736 24.0509 28.4469 24.0509C29.4018 24.0509 29.8269 24.4416 29.9856 25.3158V35.2037C29.8284 35.6453 30.1862 36.0045 30.6277 35.9746H35.3352C35.7768 36.0045 36.1345 35.6453 35.9759 35.2037V24.9835C36.133 19.7865 32.4314 17.9409 29.2611 17.9409ZM34.5344 34.4778H31.427V25.3158C31.427 23.548 30.285 22.4523 28.4484 22.4523C27.4096 22.4523 26.6013 22.7577 26.0445 23.3594C25.2706 24.1976 25.3305 25.2604 25.4966 25.4969V34.4778H22.4701V19.5395H25.338V20.0425C25.3368 20.1923 25.3779 20.3394 25.4566 20.4669C25.5353 20.5944 25.6484 20.6971 25.7828 20.7632C25.9172 20.8294 26.0676 20.8562 26.2166 20.8407C26.3657 20.8252 26.5073 20.768 26.6252 20.6756L26.8348 20.514C27.441 20.0365 28.0682 19.541 29.2626 19.541C30.499 19.541 34.5359 19.9347 34.5359 24.985L34.5344 34.4778ZM16.5157 10.4778C14.8363 10.4778 13.4712 11.8429 13.4712 13.5223C13.4712 15.2017 14.8363 16.5668 16.5157 16.5668C18.1952 16.5668 19.5603 15.2017 19.5603 13.5223C19.5603 11.8429 18.1952 10.4778 16.5157 10.4778ZM16.5157 14.9682C15.7194 14.9682 15.0698 14.3186 15.0698 13.5223C15.0698 12.726 15.7194 12.0764 16.5157 12.0764C17.312 12.0764 17.9616 12.726 17.9616 13.5223C17.9616 14.3186 17.312 14.9682 16.5157 14.9682ZM18.6532 17.9394H14.2106C13.7691 17.9394 13.4113 18.2972 13.5221 18.7612V35.2262C13.4113 35.6453 13.7691 36.0045 14.2106 35.9746H18.6532C19.0947 36.0045 19.4525 35.6453 19.4525 35.2037V18.7387C19.4525 18.5267 19.3683 18.3234 19.2184 18.1735C19.0685 18.0236 18.8652 17.9394 18.6532 17.9394ZM18.0125 34.4778H15.0099V19.5395H18.0125V34.4778Z" fill="#FBFBFB"/>
<path d="M24 0C10.7651 0 0 10.7651 0 24C0 37.2349 10.7651 48 24 48C37.2349 48 48 37.2349 48 24C48 10.7651 37.2349 0 24 0ZM24 46.4014C11.6482 46.4014 1.5986 36.3518 1.5986 24C1.5986 11.6482 11.6482 1.5986 24 1.5986C36.3518 1.5986 46.4014 11.6482 46.4014 24C46.4014 36.3518 36.3518 46.4014 24 46.4014Z" fill="#FBFBFB"/>
</svg>
