<svg width="48" height="48" viewBox="0 0 48 48" fill="none" xmlns="http://www.w3.org/2000/svg">
<path d="M18.2583 24C18.2624 25.2006 18.4127 26.3963 18.7061 27.5605H23.3861V20.7139H18.6411C18.3914 21.7915 18.263 22.8938 18.2583 24Z" fill="white"/>
<path d="M24.614 20.7139V27.5605H29.294C29.5996 26.3978 29.762 25.2021 29.7779 24C29.7755 22.894 29.6496 21.7918 29.4023 20.7139H24.614Z" fill="white"/>
<path d="M23.9999 12.4443C21.7144 12.4443 19.4803 13.1221 17.58 14.3918C15.6797 15.6615 14.1986 17.4663 13.324 19.5778C12.4493 21.6893 12.2205 24.0127 12.6664 26.2543C13.1123 28.4958 14.2128 30.5548 15.8289 32.1709C17.445 33.787 19.504 34.8875 21.7455 35.3334C23.9871 35.7793 26.3105 35.5504 28.422 34.6758C30.5335 33.8012 32.3382 32.3201 33.608 30.4198C34.8777 28.5195 35.5555 26.2854 35.5555 23.9999C35.5555 20.9352 34.338 17.996 32.1709 15.8289C30.0038 13.6618 27.0646 12.4443 23.9999 12.4443ZM32.8255 28.846H30.211C29.7167 30.3936 28.9858 31.8553 28.0443 33.1793C27.3496 33.4821 26.6227 33.705 25.8777 33.8438C27.212 32.3939 28.2389 30.6889 28.8966 28.8316H24.621V33.9954H23.4005V28.846H19.1032C19.76 30.7059 20.787 32.4135 22.1221 33.8654C21.3924 33.7282 20.6803 33.5102 19.9988 33.2154C19.054 31.8803 18.323 30.4062 17.8321 28.846H15.1743C14.9436 28.4251 14.7433 27.9883 14.5749 27.5388H17.4638C17.1931 26.3784 17.0526 25.1914 17.0449 23.9999C17.0453 22.8954 17.1615 21.794 17.3916 20.7138H14.4377C14.5896 20.2656 14.773 19.8288 14.9866 19.4066H17.7382C18.2545 17.687 19.0552 16.066 20.1071 14.611C20.7741 14.3346 21.4691 14.1312 22.1799 14.0043C20.7432 15.5463 19.6589 17.3822 19.0021 19.3849H23.4005V13.8888H24.621V19.4066H29.0193C28.3638 17.4071 27.282 15.5738 25.8488 14.0332C26.5584 14.1509 27.2534 14.3447 27.9216 14.611C28.9673 16.0555 29.7654 17.664 30.2832 19.3704H33.006C33.2196 19.7927 33.403 20.2295 33.5549 20.6777H30.6227C30.8577 21.7695 30.9763 22.8831 30.9766 23.9999C30.9729 25.1984 30.8348 26.3927 30.5649 27.5604H33.4538C33.2751 28.0033 33.0651 28.4329 32.8255 28.846Z" fill="white"/>
<path d="M24.0015 0C10.7681 0 0 10.7651 0 24C0 37.2349 10.7681 48 24.0015 48C37.2349 48 48.003 37.2349 48.003 24C48.003 10.7651 37.2349 0 24.0015 0ZM24.0015 46.4014C11.6497 46.4014 1.6016 36.3518 1.6016 24C1.6016 11.6482 11.6497 1.5986 24.0015 1.5986C36.3532 1.5986 46.4014 11.6482 46.4014 24C46.4014 36.3518 36.3532 46.4014 24.0015 46.4014Z" fill="#FBFBFB"/>
</svg>
