<svg width="48" height="48" viewBox="0 0 48 48" fill="none" xmlns="http://www.w3.org/2000/svg">
<g clip-path="url(#clip0_1038_10373)">
<path d="M24.0015 0C10.7681 0 0 10.7651 0 24C0 37.2349 10.7681 48 24.0015 48C37.2349 48 48.003 37.2349 48.003 24C48.003 10.7651 37.2349 0 24.0015 0ZM24.0015 46.4014C11.6497 46.4014 1.6016 36.3518 1.6016 24C1.6016 11.6482 11.6497 1.5986 24.0015 1.5986C36.3532 1.5986 46.4014 11.6482 46.4014 24C46.4014 36.3518 36.3532 46.4014 24.0015 46.4014Z" fill="#FBFBFB"/>
<path d="M32.0143 11.9746H35.916L27.3917 22.1204L37.4205 35.9237H29.5683L23.4189 27.551L16.381 35.9237H12.4772L21.5953 25.0714L11.9746 11.9757H20.0261L25.585 19.6287L32.0143 11.9746ZM30.6456 33.4927H32.8074L18.8514 14.2787H16.5316L30.6456 33.4927Z" fill="#FBFBFB"/>
</g>
<defs>
<clipPath id="clip0_1038_10373">
<rect width="47.8982" height="47.8982" fill="white"/>
</clipPath>
</defs>
</svg>
